<svg data-noselect="" viewBox="0 0 400 300" width="400" height="300" preserveAspectRatio="none" version="1.1" xmlns="http://www.w3.org/2000/svg" style="background: rgba(255, 255, 255, 0);"><defs></defs> <g id="shape_aLs3aHyl5l" transform="translate(228.44243792325057,100.51916049242558) rotate(0,80,42.62185234885599) scale(0.9029345372460497,0.9029345372460497)" filter="" style="cursor: move; opacity: 1;"><g><rect fill="rgba(0,0,0,0)" width="180" height="105.24370469771198" x="-10" y="-10"></rect><svg version="1.1" id="图层_1" xmlns="http://www.w3.org/2000/svg" xmlns:xlink="http://www.w3.org/1999/xlink" x="0px" y="0px" style="enable-background:new 0 0 283.46 283.46;" xml:space="preserve" viewBox="40.071624755859375 65.36998748779297 203.3123779296875 117.73198699951172" width="160" height="85.24370469771198" preserveAspectRatio="none" data-parent="shape_aLs3aHyl5l">
<path style="" d="M160.663,183.088c-29.235-0.006-59.466-0.013-89.196-0.091c-9.115-0.024-17.744-3.967-23.67-10.815
	c-6.017-6.954-8.714-16.234-7.399-25.461c2.984-20.949,15.703-32.57,36.786-33.608c5.522-0.27,6.807-4.338,7.356-6.076
	c0.065-0.203,0.129-0.41,0.202-0.616c7.329-20.81,21.928-34.049,43.391-39.346c4.583-1.131,9.31-1.705,14.048-1.705
	c18.95,0,36.554,8.963,47.092,23.979c14.511,20.679,15.584,42.488,3.187,64.822c-0.524,0.943-7.561,12.129-7.561,12.129
	s12.52-0.006,14.351-0.104c4.299-0.232,8.745-0.471,13.017-1.77c10.734-3.266,17.67-11.423,19.529-22.971
	c1.969-12.23-2.19-22.663-12.028-30.17c-2.27-1.732-3.268-3.147-3.818-5.411c-0.424-1.744-1.022-3.381-1.702-5.009
	c13.983,4.25,23.149,13.545,27.261,27.658c4.439,15.235,0.987,29.059-10.259,41.086c-8.372,8.953-19.047,13.493-31.725,13.493
	C199.527,183.102,173.608,183.089,160.663,183.088z M78.639,165.962c8.102,0,16.349,0.068,24.326,0.135
	c7.991,0.067,16.255,0.137,24.391,0.137c5.371,0,10.221-0.03,14.82-0.09c16.486-0.218,29.547-8.452,36.776-23.186
	c7.702-15.693,6.187-31.19-4.384-44.814c-8.196-10.562-19.273-16.146-32.037-16.146c-2.21,0-4.498,0.168-6.797,0.499
	c-19.047,2.746-32.26,12.44-39.275,28.814c-1.595,3.724-2.696,7.489-3.761,11.131c-0.135,0.462-0.269,0.921-0.403,1.376
	c-0.879-0.064-1.754-0.132-2.627-0.199c-3.856-0.296-7.844-0.603-11.794-0.603c-0.542,0-1.083,0.006-1.622,0.017
	c-7.122,0.158-13.032,2.766-17.098,7.54c-6.194,7.274-7.83,15.79-4.61,23.979c4.486,11.42,15.835,11.42,19.565,11.42
	C74.111,165.969,77.18,165.962,78.639,165.962z" fill="#2096D5"></path>
</svg></g> <!----></g><g id="shape_1Ui3kcvACT" transform="translate(27.08803611738149,96.32448149050332) rotate(0,142.5,26.68) scale(0.9029345372460497,0.9029345372460497)" filter="" style="cursor: move; opacity: 1;"><g><svg xmlns="http://www.w3.org/2000/svg" version="1.1" xmlns:xlink="http://www.w3.org/1999/xlink" overflow="hidden" style="top:0; left: 0" width="285" height="53.36" viewBox="0 0 285 53.36" preserveAspectRatio="none" data-parent="shape_1Ui3kcvACT"><rect fill="rgba(0,0,0,0)" width="285" height="53.36"></rect> <rect opacity="0"></rect><g transform="translate(0 0)" data-width="230"><path fill="rgb(4, 123, 248)" d="M43.56-20.33L36.85-20.33L38.55-11.04L43.56-13.98L43.56-10.12L39.19-7.54L41.95 7.41L32.02 7.41L30.31-2.25L19.46 4.19L19.46 0.28L29.67-5.80L27.09-20.33L17.99-20.33L17.99-10.81L23.09-11.91L23.09-8.46L17.99-7.41L17.99 7.41L5.57 7.41L5.57 4.05L7.31 4.05L7.31-5.15L1.84-4.00L1.84-7.41L7.31-8.56L7.31-20.33L1.84-20.33L1.84-23.46L7.31-23.46L7.31-31.65L2.94-31.14L2.94-34.27L21.90-36.34L21.90-33.30L17.99-32.84L17.99-23.46L26.54-23.46L24.24-36.57L33.86-36.57L36.25-23.46L43.56-23.46L43.56-20.33ZM43.15-26.77L36.62-26.77L35.19-35.28L41.72-35.28L43.15-26.77Z" transform="translate(0 39.56) skewX(-15)"></path><path fill="rgb(4, 123, 248)" d="M41.08-31.97L41.08-31.97Q42.23-31.97 43.08-31.12L43.08-31.12L43.08-31.12Q43.93-30.27 43.93-29.07L43.93-29.07L43.93 7.36L32.48 7.36L32.48 4.28L35.01 4.28L35.01-27.92L35.01-27.92Q35.01-28.89 34.04-28.89L34.04-28.89L32.80-28.89L31.74-22.36L23.60-22.36L25.81-36.57L34.09-36.57L33.30-31.97L41.08-31.97ZM19.64-30.87L19.64-30.87Q20.84-30.87 21.67-30.02L21.67-30.02L21.67-30.02Q22.49-29.16 22.49-27.97L22.49-27.97L22.49 7.08L2.53 7.08L2.53-30.87L6.58-30.87L7.36-36.52L17.20-36.52L16.42-30.87L19.64-30.87ZM14.26-13.94L14.26-27.19L14.26-27.19Q14.26-28.15 13.29-28.15L13.29-28.15L11.13-28.15L11.13-13.94L14.26-13.94ZM31.65-18.40L33.03-2.90L25.30-2.90L24.10-18.40L31.65-18.40ZM14.26 4.42L14.26-10.86L11.13-10.86L11.13 4.42L14.26 4.42Z" transform="translate(46 39.56) skewX(-15)"></path><path fill="rgb(4, 123, 248)" d="M41.35-33.30L41.35-33.30Q42.50-33.30 43.35-32.45L43.35-32.45L43.35-32.45Q44.21-31.60 44.21-30.41L44.21-30.41L44.21-25.48L33.58-25.48L33.58-29.26L33.58-29.26Q33.58-30.22 32.61-30.22L32.61-30.22L12.65-30.22L12.65-25.48L1.98-25.48L1.98-33.30L17.71-33.30L17.71-36.48L29.30-36.48L29.30-33.30L41.35-33.30ZM41.86-20.70L27.23-20.70L30.22-14.90L30.22 7.31L17.30 7.31L17.30 4.28L18.68 4.28L18.68-1.89L2.12 7.08L2.12 3.59L18.68-5.38L18.68-10.40L2.12-1.43L2.12-4.92L18.35-13.75L16.19-17.62L2.12-9.80L2.12-13.29L15.09-20.70L4.74-20.70L4.74-24.15L41.86-24.15L41.86-20.70ZM31.42-9.38L33.81-19.32L43.15-19.32L40.71-9.38L31.42-9.38ZM31.42-7.87L40.71-7.87L43.52 6.72L33.99 6.72L31.42-7.87Z" transform="translate(92 39.56) skewX(-15)"></path><path fill="rgb(4, 123, 248)" d="M44.44-32.38L31.83-32.38L31.83-36.52L19.87-36.52L19.87-32.38L5.01-32.38L5.01-32.38Q3.82-32.38 2.97-31.56L2.97-31.56L2.97-31.56Q2.12-30.73 2.12-29.53L2.12-29.53L2.12 7.41L12.51 7.41L12.51-28.38L12.51-28.38Q12.51-29.30 13.48-29.30L13.48-29.30L44.44-29.30L44.44-32.38ZM28.38 3.96L23.09 0L24.75-11.82L24.75-11.82Q24.89-12.60 24.36-13.18L24.36-13.18L24.36-13.18Q23.83-13.75 23.05-13.75L23.05-13.75L25.02-26.54L13.39-26.54L13.39-23.41L15.96-23.41L13.98-10.67L14.86-10.67L14.86-10.67Q15.96-10.67 15.82-9.61L15.82-9.61L15.27-5.89L13.25-7.36L13.25-1.70L14.49-0.74L13.29 7.18L22.08 7.18L22.36 5.29L24.84 7.18L44.39 7.18L44.39 3.96L28.38 3.96ZM29.07-14.21L25.58-14.21L25.58-11.09L29.07-11.09L29.07-2.02L26.13-2.02L26.13 1.10L43.29 1.10L43.29-2.02L39.47-2.02L39.47-11.09L43.33-11.09L43.33-14.21L39.47-14.21L39.47-22.82L43.29-23.09L43.29-26.13L26.13-24.93L26.13-21.85L29.07-22.08L29.07-14.21Z" transform="translate(138 39.56) skewX(-15)"></path><path fill="rgb(4, 123, 248)" d="M42.60-35.24L42.60-32.11L3.73-32.11L3.73-35.24L42.60-35.24ZM44.76-16.79L21.07-16.79L16.51 1.84L30.73-0.28L27.83-11.73L39.28-11.73L44.11 7.04L32.61 7.04L31.51 2.67L3.86 6.95L3.08 3.82L4.55 3.59L9.48-16.79L1.56-16.79L1.56-19.87L44.76-19.87L44.76-16.79Z" transform="translate(184 39.56) skewX(-15)"></path></g></svg></g> <!----></g><g id="shape_RMAQrTNCnq" transform="translate(47.855530474040634,140.8933514666073) rotate(0,100,34.765625) scale(0.9029345372460497,0.9029345372460497)" filter="" style="cursor: move; opacity: 1;"><g><svg xmlns="http://www.w3.org/2000/svg" version="1.1" xmlns:xlink="http://www.w3.org/1999/xlink" overflow="hidden" style="top:0; left: 0" width="200" height="69.53125" viewBox="0 0 200 69.53125" preserveAspectRatio="none" data-parent="shape_RMAQrTNCnq"><rect fill="rgba(0,0,0,0)" width="200" height="69.53125"></rect> <rect opacity="0"></rect><g transform="translate(0 0)" data-width="172.4853515625"><path fill="rgb(4, 123, 248)" d="M27.34-35.64L36.23-4.54L43.82-35.64L49.19-35.64L49.19-35.64Q48.90-34.89 48.61-34.07L48.61-34.07L48.61-34.07Q48.32-33.25 47.99-32.21L47.99-32.21L47.99-32.21Q47.66-31.18 47.27-29.85L47.27-29.85L47.27-29.85Q46.88-28.52 46.39-26.73L46.39-26.73L38.94 0L33.45 0L25.07-28.71L16.72 0L11.23 0L3.78-26.73L3.78-26.73Q3.30-28.49 2.91-29.82L2.91-29.82L2.91-29.82Q2.51-31.15 2.19-32.21L2.19-32.21L2.19-32.21Q1.86-33.28 1.56-34.09L1.56-34.09L1.56-34.09Q1.27-34.91 0.98-35.64L0.98-35.64L6.35-35.64L14.06-4.54L22.83-35.64L27.34-35.64Z" transform="translate(0 40.234375) skewX(-15)" stroke="rgb(4, 123, 248)" stroke-width="2" stroke-linecap="round" stroke-linejoin="round"></path><path fill="rgb(4, 123, 248)" d="M4.27-11.11L4.27-11.11L4.27-27.91L4.27-27.91Q4.27-29.61 4.24-31.09L4.24-31.09L4.24-31.09Q4.20-32.57 4.13-33.74L4.13-33.74L4.13-33.74Q4.05-34.91 3.91-35.64L3.91-35.64L3.91-35.64Q4.42-35.67 5.21-35.71L5.21-35.71L5.21-35.71Q6.01-35.74 6.97-35.77L6.97-35.77L6.97-35.77Q7.93-35.79 9.00-35.82L9.00-35.82L9.00-35.82Q10.06-35.84 11.12-35.85L11.12-35.85L11.12-35.85Q12.18-35.86 13.18-35.88L13.18-35.88L13.18-35.88Q14.18-35.89 15.01-35.89L15.01-35.89L15.01-35.89Q15.99-35.89 17.25-35.78L17.25-35.78L17.25-35.78Q18.51-35.67 19.89-35.35L19.89-35.35L19.89-35.35Q21.26-35.03 22.72-34.46L22.72-34.46L22.72-34.46Q24.17-33.89 25.52-32.96L25.52-32.96L25.52-32.96Q26.88-32.03 28.08-30.71L28.08-30.71L28.08-30.71Q29.27-29.39 30.16-27.59L30.16-27.59L30.16-27.59Q31.05-25.78 31.58-23.43L31.58-23.43L31.58-23.43Q32.10-21.07 32.10-18.07L32.10-18.07L32.10-18.07Q32.10-14.43 31.30-11.66L31.30-11.66L31.30-11.66Q30.49-8.89 29.14-6.86L29.14-6.86L29.14-6.86Q27.78-4.83 26.00-3.47L26.00-3.47L26.00-3.47Q24.22-2.10 22.27-1.27L22.27-1.27L22.27-1.27Q20.31-0.44 18.31-0.10L18.31-0.10L18.31-0.10Q16.31 0.24 14.53 0.24L14.53 0.24L14.53 0.24Q13.94 0.24 13.17 0.23L13.17 0.23L13.17 0.23Q12.40 0.22 11.55 0.21L11.55 0.21L11.55 0.21Q10.69 0.20 9.79 0.17L9.79 0.17L9.79 0.17Q8.89 0.15 8.03 0.12L8.03 0.12L8.03 0.12Q6.03 0.07 3.91 0L3.91 0L3.91 0Q4.05-0.73 4.11-1.88L4.11-1.88L4.11-1.88Q4.17-3.03 4.21-4.47L4.21-4.47L4.21-4.47Q4.25-5.91 4.26-7.60L4.26-7.60L4.26-7.60Q4.27-9.30 4.27-11.11ZM8.91-31.86L8.91-4.03L8.91-4.03Q9.77-3.96 11.15-3.87L11.15-3.87L11.15-3.87Q12.52-3.78 14.28-3.78L14.28-3.78L14.28-3.78Q15.92-3.78 17.52-4.10L17.52-4.10L17.52-4.10Q19.12-4.42 20.57-5.11L20.57-5.11L20.57-5.11Q22.02-5.81 23.27-6.91L23.27-6.91L23.27-6.91Q24.51-8.01 25.42-9.53L25.42-9.53L25.42-9.53Q26.32-11.06 26.83-13.06L26.83-13.06L26.83-13.06Q27.34-15.06 27.34-17.58L27.34-17.58L27.34-17.58Q27.34-21.68 26.31-24.44L26.31-24.44L26.31-24.44Q25.27-27.20 23.51-28.87L23.51-28.87L23.51-28.87Q21.75-30.54 19.40-31.26L19.40-31.26L19.40-31.26Q17.04-31.98 14.40-31.98L14.40-31.98L14.40-31.98Q13.79-31.98 13.04-31.97L13.04-31.97L13.04-31.97Q12.28-31.96 11.51-31.93L11.51-31.93L11.51-31.93Q10.74-31.91 10.06-31.90L10.06-31.90L10.06-31.90Q9.38-31.88 8.91-31.86L8.91-31.86Z" transform="translate(50.78125 40.234375) skewX(-15)" stroke="rgb(4, 123, 248)" stroke-width="2" stroke-linecap="round" stroke-linejoin="round"></path><path fill="rgb(4, 123, 248)" d="M14.04-35.64L19.04-35.64L19.04-13.06L19.04-13.06Q19.04-9.25 18.26-6.64L18.26-6.64L18.26-6.64Q17.48-4.03 16.08-2.42L16.08-2.42L16.08-2.42Q14.67-0.81 12.72-0.10L12.72-0.10L12.72-0.10Q10.77 0.61 8.42 0.61L8.42 0.61L8.42 0.61Q7.54 0.61 6.51 0.45L6.51 0.45L6.51 0.45Q5.47 0.29 4.42-0.05L4.42-0.05L4.42-0.05Q3.37-0.39 2.44-0.93L2.44-0.93L2.44-0.93Q1.51-1.46 0.85-2.20L0.85-2.20L1.95-6.71L1.95-6.71Q2.56-6.01 3.32-5.46L3.32-5.46L3.32-5.46Q4.08-4.91 4.90-4.54L4.90-4.54L4.90-4.54Q5.71-4.17 6.58-3.98L6.58-3.98L6.58-3.98Q7.45-3.78 8.30-3.78L8.30-3.78L8.30-3.78Q9.64-3.78 10.77-4.26L10.77-4.26L10.77-4.26Q11.89-4.74 12.70-5.73L12.70-5.73L12.70-5.73Q13.50-6.71 13.95-8.23L13.95-8.23L13.95-8.23Q14.40-9.74 14.40-11.84L14.40-11.84L14.40-23.93L14.40-23.93Q14.40-25.71 14.39-27.40L14.39-27.40L14.39-27.40Q14.38-29.10 14.34-30.60L14.34-30.60L14.34-30.60Q14.31-32.10 14.23-33.39L14.23-33.39L14.23-33.39Q14.16-34.67 14.04-35.64L14.04-35.64Z" transform="translate(85.8154296875 40.234375) skewX(-15)" stroke="rgb(4, 123, 248)" stroke-width="2" stroke-linecap="round" stroke-linejoin="round"></path><path fill="rgb(4, 123, 248)" d="M1.10-35.64L29.30-35.64L29.30-31.13L29.30-31.13Q27.83-31.45 26.40-31.53L26.40-31.53L26.40-31.53Q24.98-31.62 23.32-31.62L23.32-31.62L17.46-31.62L17.46-10.62L17.46-10.62Q17.46-7.01 17.54-4.24L17.54-4.24L17.54-4.24Q17.63-1.46 17.94 0L17.94 0L12.33 0L12.33 0Q12.65-1.46 12.73-4.24L12.73-4.24L12.73-4.24Q12.82-7.01 12.82-10.62L12.82-10.62L12.82-31.62L7.08-31.62L7.08-31.62Q5.44-31.62 4.00-31.53L4.00-31.53L4.00-31.53Q2.56-31.45 1.10-31.13L1.10-31.13L1.10-35.64Z" transform="translate(109.375 40.234375) skewX(-15)" stroke="rgb(4, 123, 248)" stroke-width="2" stroke-linecap="round" stroke-linejoin="round"></path><path fill="rgb(4, 123, 248)" d="M0.85-35.64L6.47-35.64L16.11-19.51L25.27-35.64L30.88-35.64L30.88-35.64Q29.81-34.11 28.98-32.85L28.98-32.85L28.98-32.85Q28.15-31.59 27.45-30.47L27.45-30.47L27.45-30.47Q26.76-29.35 26.11-28.27L26.11-28.27L26.11-28.27Q25.46-27.20 24.78-26.00L24.78-26.00L18.19-14.72L18.19-10.62L18.19-10.62Q18.19-7.01 18.24-4.24L18.24-4.24L18.24-4.24Q18.29-1.46 18.55 0L18.55 0L13.18 0L13.18 0Q13.45-1.46 13.50-4.24L13.50-4.24L13.50-4.24Q13.55-7.01 13.55-10.62L13.55-10.62L13.55-14.92L7.08-26.00L7.08-26.00Q6.37-27.20 5.70-28.34L5.70-28.34L5.70-28.34Q5.03-29.49 4.30-30.66L4.30-30.66L4.30-30.66Q3.56-31.84 2.72-33.06L2.72-33.06L2.72-33.06Q1.88-34.28 0.85-35.64L0.85-35.64Z" transform="translate(140.2587890625 40.234375) skewX(-15)" stroke="rgb(4, 123, 248)" stroke-width="2" stroke-linecap="round" stroke-linejoin="round"></path></g></svg></g> <!----></g>  </svg>